<svg width="216" height="80" viewBox="0 0 216 80" fill="none" xmlns="http://www.w3.org/2000/svg">
<path d="M40.0001 71.9999C13.4081 71.9999 9.77783 45.3333 9.77783 38.2222H70.2223C70.2223 41.7777 66.7414 71.9999 40.0001 71.9999Z" fill="#DD2E44"/>
<path d="M40.0001 55.1111C56.6913 55.1111 70.2223 47.5943 70.2223 38.3218C70.2223 29.0493 56.6913 21.5325 40.0001 21.5325C23.3088 21.5325 9.77783 29.0493 9.77783 38.3218C9.77783 47.5943 23.3088 55.1111 40.0001 55.1111Z" fill="#A0041E"/>
<path d="M40.0001 52.4444C29.3334 52.4444 11.5557 47.1111 11.5557 38.2222C11.5557 27.5555 22.4446 15.1111 40.0001 15.1111C57.5557 15.1111 68.4445 29.3333 68.4445 38.2222C68.4445 47.1111 52.4446 52.4444 40.0001 52.4444Z" fill="#E6E9EA"/>
<path d="M35.3957 43.3635C36.1406 44.0017 36.2277 45.1253 35.5877 45.8701C34.9495 46.615 33.8259 46.7021 33.081 46.0621L30.3806 43.7475C29.6357 43.1093 29.5486 41.9857 30.1886 41.2408C30.8268 40.4959 31.9503 40.4088 32.6952 41.0488L35.3957 43.3635ZM20.9477 40.6844C20.4072 41.5021 19.3032 41.7279 18.4837 41.1875C17.6659 40.6453 17.4401 39.543 17.9806 38.7235L19.9415 35.7564C20.4837 34.9368 21.5859 34.7128 22.4055 35.2533C23.2232 35.7955 23.449 36.8977 22.9086 37.7173L20.9477 40.6844V40.6844ZM61.8366 40.6844C61.2943 41.5021 60.1903 41.7279 59.3708 41.1875C58.553 40.6453 58.3272 39.543 58.8695 38.7235L60.8303 35.7564C61.3726 34.9368 62.4766 34.7128 63.2943 35.2533C64.1121 35.7955 64.3379 36.8977 63.7975 37.7173L61.8366 40.6844V40.6844ZM50.9868 34.2737C51.1823 35.2355 50.5619 36.1741 49.6001 36.3715C48.6383 36.567 47.6997 35.9466 47.5023 34.9848L46.793 31.5004C46.5975 30.5386 47.2161 29.5999 48.1797 29.4044C49.1415 29.207 50.0801 29.8293 50.2757 30.791L50.9868 34.2737V34.2737ZM37.5823 27.2373C36.969 26.9884 36.6739 26.2879 36.9246 25.6746C37.1735 25.063 37.8739 24.7679 38.4855 25.0168L40.7059 25.9217C41.3192 26.1706 41.6126 26.8693 41.3637 27.4826C41.113 28.0959 40.4143 28.391 39.801 28.1404L37.5823 27.2373V27.2373ZM21.0561 30.023C20.5103 30.3981 19.7637 30.2595 19.3886 29.7119C19.0152 29.1661 19.1539 28.4195 19.6997 28.0461L21.6783 26.6915C22.2241 26.3181 22.969 26.4568 23.3441 27.0026C23.7175 27.5484 23.5788 28.295 23.033 28.6701L21.0561 30.023V30.023ZM45.2215 45.2141C44.2419 45.1501 43.4988 44.3021 43.5628 43.3226C43.6286 42.3448 44.4748 41.6017 45.4508 41.6639L49.001 41.8968C49.9788 41.959 50.7237 42.807 50.6597 43.7848C50.5975 44.7644 49.7512 45.5093 48.7717 45.4435L45.2215 45.2141ZM28.793 33.8613C27.8828 33.4915 27.4455 32.4515 27.817 31.543C28.1886 30.6346 29.2268 30.1973 30.1352 30.567L33.4295 31.9093C34.3379 32.279 34.7752 33.3155 34.4055 34.2257C34.0357 35.1359 32.9975 35.5733 32.0872 35.2017L28.793 33.8613V33.8613ZM57.1397 29.015C56.5246 28.7661 56.2295 28.0657 56.4819 27.4524C56.7308 26.8408 57.4312 26.5457 58.0428 26.7946L60.265 27.6995C60.8766 27.9484 61.1717 28.647 60.921 29.2604C60.6703 29.8737 59.9735 30.1688 59.3583 29.9181L57.1397 29.015V29.015Z" fill="#CCD6DD"/>
<path d="M96.512 58V31.6H102.176V36.64H102.224C103.056 32.96 105.472 31.12 109.472 31.12C112.32 31.12 114.56 32 116.192 33.76C117.824 35.52 118.64 37.952 118.64 41.056V42.976H112.352V41.488C112.352 39.792 111.904 38.48 111.008 37.552C110.144 36.624 108.944 36.16 107.408 36.16C105.872 36.16 104.672 36.624 103.808 37.552C102.944 38.48 102.512 39.792 102.512 41.488V58H96.512ZM124.429 58V52.528H133.645V37.024H125.629V31.6H139.405V52.528H147.565V58H124.429ZM136.045 27.184C134.829 27.184 133.869 26.88 133.165 26.272C132.461 25.632 132.109 24.784 132.109 23.728C132.109 22.672 132.461 21.84 133.165 21.232C133.869 20.592 134.829 20.272 136.045 20.272C137.261 20.272 138.221 20.592 138.925 21.232C139.629 21.84 139.981 22.672 139.981 23.728C139.981 24.784 139.629 25.632 138.925 26.272C138.221 26.88 137.261 27.184 136.045 27.184ZM164.107 58.48C161.867 58.48 159.899 58.064 158.203 57.232C156.539 56.368 155.243 55.168 154.315 53.632C153.387 52.064 152.923 50.224 152.923 48.112V41.488C152.923 39.376 153.387 37.552 154.315 36.016C155.243 34.448 156.539 33.248 158.203 32.416C159.899 31.552 161.867 31.12 164.107 31.12C167.435 31.12 170.091 31.984 172.075 33.712C174.059 35.408 175.099 37.728 175.195 40.672H169.195C169.099 39.296 168.603 38.24 167.707 37.504C166.811 36.736 165.611 36.352 164.107 36.352C162.507 36.352 161.243 36.8 160.315 37.696C159.387 38.56 158.923 39.808 158.923 41.44V48.112C158.923 49.744 159.387 51.008 160.315 51.904C161.243 52.8 162.507 53.248 164.107 53.248C165.643 53.248 166.843 52.88 167.707 52.144C168.603 51.376 169.099 50.304 169.195 48.928H175.195C175.099 51.872 174.059 54.208 172.075 55.936C170.091 57.632 167.435 58.48 164.107 58.48ZM192.792 58.48C190.552 58.48 188.6 58.048 186.936 57.184C185.272 56.32 183.976 55.12 183.048 53.584C182.152 52.016 181.704 50.192 181.704 48.112V41.488C181.704 39.408 182.152 37.6 183.048 36.064C183.976 34.496 185.272 33.28 186.936 32.416C188.6 31.552 190.552 31.12 192.792 31.12C195 31.12 196.92 31.552 198.552 32.416C200.216 33.28 201.496 34.496 202.392 36.064C203.32 37.6 203.784 39.408 203.784 41.488V46.24H187.512V48.112C187.512 51.856 189.288 53.728 192.84 53.728C195.592 53.728 197.208 52.816 197.688 50.992H203.592C203.144 53.264 201.928 55.088 199.944 56.464C197.992 57.808 195.608 58.48 192.792 58.48ZM187.512 41.488V42.496L197.976 42.448V41.44C197.976 39.616 197.544 38.224 196.68 37.264C195.816 36.272 194.52 35.776 192.792 35.776C191.032 35.776 189.704 36.272 188.808 37.264C187.944 38.256 187.512 39.664 187.512 41.488Z" fill="#ECEFF4"/>
</svg>
