<svg width="12" height="12" viewBox="0 0 12 12" fill="none" xmlns="http://www.w3.org/2000/svg">
<path d="M3.75 8.25H8.25V3.75H3.75V8.25ZM10.5 4.125H11.625C11.8313 4.125 12 3.95625 12 3.75C12 3.54375 11.8321 3.375 11.625 3.375H10.5V3C10.5 2.17148 9.82852 1.5 9 1.5H8.625V0.375C8.625 0.167906 8.45625 0 8.25 0C8.04291 0 7.875 0.167906 7.875 0.375V1.5H6.375V0.375C6.375 0.167906 6.20625 0 6 0C5.79375 0 5.625 0.167906 5.625 0.375V1.5H4.125V0.375C4.125 0.167906 3.95625 0 3.75 0C3.54375 0 3.375 0.167906 3.375 0.375V1.5H3C2.17148 1.5 1.5 2.17148 1.5 3V3.375H0.375C0.167906 3.375 0 3.54375 0 3.75C0 3.95625 0.167906 4.125 0.375 4.125H1.5V5.625H0.375C0.167906 5.625 0 5.79375 0 6C0 6.20625 0.167906 6.375 0.375 6.375H1.5V7.875H0.375C0.167906 7.875 0 8.04375 0 8.25C0 8.45625 0.167906 8.625 0.375 8.625H1.5V9C1.5 9.82852 2.17148 10.5 3 10.5H3.375V11.625C3.375 11.8313 3.54375 12 3.75 12C3.95714 12 4.125 11.8321 4.125 11.625V10.5H5.625V11.625C5.625 11.8321 5.79291 12 6 12C6.20714 12 6.375 11.8321 6.375 11.625V10.5H7.875V11.625C7.875 11.8321 8.04291 12 8.25 12C8.45714 12 8.625 11.8321 8.625 11.625V10.5H9C9.82852 10.5 10.5 9.82852 10.5 9V8.625H11.625C11.8321 8.625 12 8.45709 12 8.25C12 8.04291 11.8321 7.875 11.625 7.875H10.5V6.375H11.625C11.8313 6.375 12 6.20625 12 6C12 5.79375 11.8321 5.625 11.625 5.625H10.5V4.125ZM9 8.625C9 8.83209 8.83214 9 8.625 9H3.375C3.16875 9 3 8.83125 3 8.625V3.375C3 3.16875 3.16875 3 3.375 3H8.625C8.83125 3 9 3.16875 9 3.375V8.625Z" fill="#81A1C1"/>
</svg>
