<svg width="12" height="12" viewBox="0 0 12 12" fill="none" xmlns="http://www.w3.org/2000/svg">
<path d="M0 10H1.66667V9.33333C1.66667 9.14921 1.81592 9 2 9C2.18413 9 2.33333 9.14921 2.33333 9.33333V10H4.33333V9.33333C4.33333 9.14921 4.48258 9 4.66667 9C4.85079 9 5 9.14921 5 9.33333V10H7V9.33333C7 9.14921 7.14925 9 7.33333 9C7.51746 9 7.66667 9.14921 7.66667 9.33333V10H9.66667V9.33333C9.66667 9.14921 9.81592 9 10 9C10.1841 9 10.3333 9.14921 10.3333 9.33333V10H12V8H0V10ZM12 3.72708V3C12 2.44771 11.5521 2 11 2H1C0.447708 2 0 2.44771 0 3V3.72792C0.3875 3.86458 0.666667 4.23125 0.666667 4.66667C0.666667 5.10208 0.3875 5.46875 0 5.60625V7.33333H12V5.60625C11.6125 5.46875 11.3333 5.10208 11.3333 4.66667C11.3333 4.23125 11.6125 3.86458 12 3.72708ZM4 5.66667C4 5.85 3.85 6 3.66667 6H3C2.81667 6 2.66667 5.85 2.66667 5.66667V3.66667C2.66667 3.48333 2.81667 3.33333 3 3.33333H3.66667C3.85 3.33333 4 3.48333 4 3.66667V5.66667ZM6.66667 5.66667C6.66667 5.85 6.51667 6 6.33333 6H5.66667C5.48333 6 5.33333 5.85 5.33333 5.66667V3.66667C5.33333 3.48333 5.48333 3.33333 5.66667 3.33333H6.33333C6.51667 3.33333 6.66667 3.48333 6.66667 3.66667V5.66667ZM9.33333 5.66667C9.33333 5.85 9.18333 6 9 6H8.33333C8.15 6 8 5.85 8 5.66667V3.66667C8 3.48333 8.15 3.33333 8.33333 3.33333H9C9.18333 3.33333 9.33333 3.48333 9.33333 3.66667V5.66667Z" fill="#81A1C1"/>
</svg>
