<svg width="14" height="14" viewBox="0 0 14 14" fill="none" xmlns="http://www.w3.org/2000/svg">
<g clip-path="url(#clip0_1101_189)">
<path d="M13.68 12.1324L10.407 8.85936C11.1513 7.7544 11.5185 6.37382 11.3219 4.90273C10.9867 2.4005 8.9359 0.364218 6.43122 0.0471133C2.70727 -0.424101 -0.424133 2.7073 0.047109 6.43124C0.364296 8.93702 2.40086 10.9894 4.90336 11.323C6.37445 11.5196 7.75531 11.1525 8.86 10.4081L12.133 13.6812C12.5602 14.1083 13.2528 14.1083 13.6799 13.6812C14.1066 13.2535 14.1066 12.559 13.68 12.1324ZM2.16286 5.68749C2.16286 3.75757 3.73294 2.1875 5.66286 2.1875C7.59278 2.1875 9.16286 3.75757 9.16286 5.68749C9.16286 7.61741 7.59278 9.18749 5.66286 9.18749C3.73294 9.18749 2.16286 7.61796 2.16286 5.68749Z" fill="#4C566A"/>
</g>
<defs>
<clipPath id="clip0_1101_189">
<rect width="14" height="14" fill="white"/>
</clipPath>
</defs>
</svg>
