<svg width="12" height="12" viewBox="0 0 12 12" fill="none" xmlns="http://www.w3.org/2000/svg">
<path d="M10.875 6.75H1.125C0.503906 6.75 0 7.25391 0 7.875V10.125C0 10.7461 0.503906 11.25 1.125 11.25H10.875C11.4961 11.25 12 10.7461 12 10.125V7.875C12 7.25391 11.4961 6.75 10.875 6.75ZM7.5 9.75C7.08703 9.75 6.75 9.41297 6.75 9C6.75 8.58703 7.08703 8.25 7.5 8.25C7.91297 8.25 8.25 8.58703 8.25 9C8.25 9.41297 7.9125 9.75 7.5 9.75ZM9.75 9.75C9.33703 9.75 9 9.41297 9 9C9 8.58703 9.33703 8.25 9.75 8.25C10.163 8.25 10.5 8.58703 10.5 9C10.5 9.41297 10.1625 9.75 9.75 9.75ZM10.875 0.75H1.125C0.503906 0.75 0 1.25391 0 1.875V6.38437C0.314297 6.14766 0.70125 6 1.125 6H10.875C11.2987 6 11.6857 6.14658 12 6.38461V1.875C12 1.25391 11.4961 0.75 10.875 0.75Z" fill="#81A1C1"/>
</svg>
